<svg xmlns="http://www.w3.org/2000/svg" viewBox="0 0 1923 1081"><defs><style>.cls-1,.cls-2{fill:#2b2b2b;}.cls-2{stroke:#fff;stroke-miterlimit:10;}</style></defs><title>Aktiv 2</title><g id="Lag_2" data-name="Lag 2"><g id="Lag_1-2" data-name="Lag 1"><rect class="cls-1" x="3" y="0.5" width="1920" height="1080"/><rect class="cls-2" x="1648.76" y="732.19" width="12.54" height="40.83" transform="translate(-47.42 1390.72) rotate(-45)"/><rect class="cls-2" x="1556.69" y="746.33" width="40.83" height="12.54" transform="translate(-70.25 1335.61) rotate(-45)"/><rect class="cls-2" x="1634.62" y="824.26" width="40.83" height="12.54" transform="translate(-102.53 1413.54) rotate(-45)"/><rect class="cls-2" x="1570.83" y="810.12" width="12.54" height="40.83" transform="translate(-125.35 1358.43) rotate(-45)"/><polygon class="cls-2" points="1665.04 771.47 1636.16 742.6 1616.07 722.5 1595.97 742.6 1567.1 771.47 1547 791.57 1567.1 811.66 1595.97 840.53 1616.07 860.63 1636.16 840.53 1665.04 811.66 1685.13 791.57 1665.04 771.47"/><rect class="cls-2" x="1846.63" y="732.19" width="12.54" height="40.83" transform="translate(10.53 1530.63) rotate(-45)"/><rect class="cls-2" x="1754.55" y="746.33" width="40.83" height="12.54" transform="translate(-12.29 1475.52) rotate(-45)"/><rect class="cls-2" x="1832.49" y="824.26" width="40.83" height="12.54" transform="translate(-44.57 1553.46) rotate(-45)"/><rect class="cls-2" x="1768.7" y="810.12" width="12.54" height="40.83" transform="translate(-67.4 1498.35) rotate(-45)"/><polygon class="cls-2" points="1862.9 771.47 1834.03 742.6 1813.93 722.5 1793.84 742.6 1764.96 771.47 1744.87 791.57 1764.96 811.66 1793.84 840.53 1813.93 860.63 1834.03 840.53 1862.9 811.66 1883 791.57 1862.9 771.47"/><rect class="cls-2" x="1648.76" y="930.05" width="12.54" height="40.83" transform="translate(-187.33 1448.67) rotate(-45)"/><rect class="cls-2" x="1556.69" y="944.2" width="40.83" height="12.54" transform="translate(-210.16 1393.56) rotate(-45)"/><rect class="cls-2" x="1634.62" y="1022.13" width="40.83" height="12.54" transform="translate(-242.44 1471.5) rotate(-45)"/><rect class="cls-2" x="1570.83" y="1007.99" width="12.54" height="40.83" transform="translate(-265.27 1416.39) rotate(-45)"/><polygon class="cls-2" points="1665.04 969.34 1636.16 940.47 1616.07 920.37 1595.97 940.47 1567.1 969.34 1547 989.43 1567.1 1009.53 1595.97 1038.4 1616.07 1058.5 1636.16 1038.4 1665.04 1009.53 1685.13 989.43 1665.04 969.34"/><rect class="cls-2" x="1846.63" y="930.05" width="12.54" height="40.83" transform="translate(-129.38 1588.58) rotate(-45)"/><rect class="cls-2" x="1754.55" y="944.2" width="40.83" height="12.54" transform="translate(-152.21 1533.48) rotate(-45)"/><rect class="cls-2" x="1832.49" y="1022.13" width="40.83" height="12.54" transform="translate(-184.49 1611.41) rotate(-45)"/><rect class="cls-2" x="1768.7" y="1007.99" width="12.54" height="40.83" transform="translate(-207.31 1556.3) rotate(-45)"/><polygon class="cls-2" points="1862.9 969.34 1834.03 940.47 1813.93 920.37 1793.84 940.47 1764.96 969.34 1744.87 989.43 1764.96 1009.53 1793.84 1038.4 1813.93 1058.5 1834.03 1038.4 1862.9 1009.53 1883 989.43 1862.9 969.34"/><rect class="cls-2" x="677.65" y="829.09" width="40.83" height="12.54"/><rect class="cls-2" x="677.65" y="939.3" width="40.83" height="12.54"/><polygon class="cls-2" points="746.9 910.88 746.9 870.05 746.9 841.63 718.48 841.63 677.65 841.63 649.23 841.63 649.23 870.05 649.23 910.88 649.23 939.3 677.65 939.3 718.48 939.3 746.9 939.3 746.9 910.88"/><rect class="cls-2" x="564.65" y="829.09" width="40.83" height="12.54"/><rect class="cls-2" x="564.65" y="939.3" width="40.83" height="12.54"/><polygon class="cls-2" points="633.9 910.88 633.9 870.05 633.9 841.63 605.48 841.63 564.65 841.63 536.23 841.63 536.23 870.05 536.23 910.88 536.23 939.3 564.65 939.3 605.48 939.3 633.9 939.3 633.9 910.88"/><rect class="cls-2" x="451.65" y="829.09" width="40.83" height="12.54"/><rect class="cls-2" x="451.65" y="939.3" width="40.83" height="12.54"/><polygon class="cls-2" points="520.9 910.88 520.9 870.05 520.9 841.63 492.48 841.63 451.65 841.63 423.23 841.63 423.23 870.05 423.23 910.88 423.23 939.3 451.65 939.3 492.48 939.3 520.9 939.3 520.9 910.88"/><rect class="cls-2" x="338.65" y="829.09" width="40.83" height="12.54"/><rect class="cls-2" x="338.65" y="939.3" width="40.83" height="12.54"/><polygon class="cls-2" points="407.9 910.88 407.9 870.05 407.9 841.63 379.48 841.63 338.65 841.63 310.23 841.63 310.23 870.05 310.23 910.88 310.23 939.3 338.65 939.3 379.48 939.3 407.9 939.3 407.9 910.88"/><rect class="cls-2" x="225.65" y="829.09" width="40.83" height="12.54"/><rect class="cls-2" x="225.65" y="939.3" width="40.83" height="12.54"/><polygon class="cls-2" points="294.9 910.88 294.9 870.05 294.9 841.63 266.48 841.63 225.65 841.63 197.23 841.63 197.23 870.05 197.23 910.88 197.23 939.3 225.65 939.3 266.48 939.3 294.9 939.3 294.9 910.88"/><rect class="cls-2" x="1084.76" y="732.15" width="12.54" height="40.83" transform="translate(-212.59 991.9) rotate(-45)"/><rect class="cls-2" x="992.69" y="746.3" width="40.83" height="12.54" transform="translate(-235.41 936.79) rotate(-45)"/><rect class="cls-2" x="1070.62" y="824.23" width="40.83" height="12.54" transform="translate(-267.7 1014.72) rotate(-45)"/><rect class="cls-2" x="1006.83" y="810.09" width="12.54" height="40.83" transform="translate(-290.52 959.62) rotate(-45)"/><polygon class="cls-2" points="1101.04 771.43 1072.16 742.57 1052.07 722.47 1031.97 742.57 1003.1 771.43 983 791.53 1003.1 811.63 1031.97 840.5 1052.07 860.6 1072.16 840.5 1101.04 811.63 1121.13 791.53 1101.04 771.43"/><rect class="cls-2" x="1282.63" y="732.15" width="12.54" height="40.83" transform="translate(-154.63 1131.81) rotate(-45)"/><rect class="cls-2" x="1190.55" y="746.3" width="40.83" height="12.54" transform="translate(-177.46 1076.7) rotate(-45)"/><rect class="cls-2" x="1268.49" y="824.23" width="40.83" height="12.54" transform="translate(-209.74 1154.64) rotate(-45)"/><rect class="cls-2" x="1204.7" y="810.09" width="12.54" height="40.83" transform="translate(-232.57 1099.53) rotate(-45)"/><polygon class="cls-2" points="1298.9 771.43 1270.03 742.57 1249.93 722.47 1229.84 742.57 1200.96 771.43 1180.87 791.53 1200.96 811.63 1229.84 840.5 1249.93 860.6 1270.03 840.5 1298.9 811.63 1319 791.53 1298.9 771.43"/><rect class="cls-2" x="1084.76" y="930.02" width="12.54" height="40.83" transform="translate(-352.5 1049.85) rotate(-45)"/><rect class="cls-2" x="992.69" y="944.16" width="40.83" height="12.54" transform="translate(-375.33 994.75) rotate(-45)"/><rect class="cls-2" x="1070.62" y="1022.1" width="40.83" height="12.54" transform="translate(-407.61 1072.68) rotate(-45)"/><rect class="cls-2" x="1006.83" y="1007.95" width="12.54" height="40.83" transform="translate(-430.43 1017.57) rotate(-45)"/><polygon class="cls-2" points="1101.04 969.3 1072.16 940.43 1052.07 920.33 1031.97 940.43 1003.1 969.3 983 989.4 1003.1 1009.5 1031.97 1038.37 1052.07 1058.47 1072.16 1038.37 1101.04 1009.5 1121.13 989.4 1101.04 969.3"/><rect class="cls-2" x="1282.63" y="930.02" width="12.54" height="40.83" transform="translate(-294.55 1189.77) rotate(-45)"/><rect class="cls-2" x="1190.55" y="944.16" width="40.83" height="12.54" transform="translate(-317.37 1134.66) rotate(-45)"/><rect class="cls-2" x="1268.49" y="1022.1" width="40.83" height="12.54" transform="translate(-349.65 1212.59) rotate(-45)"/><rect class="cls-2" x="1204.7" y="1007.95" width="12.54" height="40.83" transform="translate(-372.48 1157.48) rotate(-45)"/><polygon class="cls-2" points="1298.9 969.3 1270.03 940.43 1249.93 920.33 1229.84 940.43 1200.96 969.3 1180.87 989.4 1200.96 1009.5 1229.84 1038.37 1249.93 1058.47 1270.03 1038.37 1298.9 1009.5 1319 989.4 1298.9 969.3"/><rect class="cls-2" x="1084.76" y="31.17" width="12.54" height="40.83" transform="translate(283.08 786.59) rotate(-45)"/><rect class="cls-2" x="992.69" y="45.31" width="40.83" height="12.54" transform="translate(260.26 731.48) rotate(-45)"/><rect class="cls-2" x="1070.62" y="123.25" width="40.83" height="12.54" transform="translate(227.97 809.41) rotate(-45)"/><rect class="cls-2" x="1006.83" y="109.1" width="12.54" height="40.83" transform="translate(205.15 754.3) rotate(-45)"/><polygon class="cls-2" points="1101.04 70.45 1072.16 41.58 1052.07 21.48 1031.97 41.58 1003.1 70.45 983 90.55 1003.1 110.65 1031.97 139.52 1052.07 159.62 1072.16 139.52 1101.04 110.65 1121.13 90.55 1101.04 70.45"/><rect class="cls-2" x="1282.63" y="31.17" width="12.54" height="40.83" transform="translate(341.04 926.5) rotate(-45)"/><rect class="cls-2" x="1190.55" y="45.31" width="40.83" height="12.54" transform="translate(318.21 871.39) rotate(-45)"/><rect class="cls-2" x="1268.49" y="123.25" width="40.83" height="12.54" transform="translate(285.93 949.32) rotate(-45)"/><rect class="cls-2" x="1204.7" y="109.1" width="12.54" height="40.83" transform="translate(263.1 894.22) rotate(-45)"/><polygon class="cls-2" points="1298.9 70.45 1270.03 41.58 1249.93 21.48 1229.84 41.58 1200.96 70.45 1180.87 90.55 1200.96 110.65 1229.84 139.52 1249.93 159.62 1270.03 139.52 1298.9 110.65 1319 90.55 1298.9 70.45"/><rect class="cls-2" x="1084.76" y="229.04" width="12.54" height="40.83" transform="translate(143.17 844.54) rotate(-45)"/><rect class="cls-2" x="992.69" y="243.18" width="40.83" height="12.54" transform="translate(120.34 789.43) rotate(-45)"/><rect class="cls-2" x="1070.62" y="321.11" width="40.83" height="12.54" transform="translate(88.06 867.37) rotate(-45)"/><rect class="cls-2" x="1006.83" y="306.97" width="12.54" height="40.83" transform="translate(65.23 812.26) rotate(-45)"/><polygon class="cls-2" points="1101.04 268.32 1072.16 239.45 1052.07 219.35 1031.97 239.45 1003.1 268.32 983 288.42 1003.1 308.51 1031.97 337.38 1052.07 357.48 1072.16 337.38 1101.04 308.51 1121.13 288.42 1101.04 268.32"/><rect class="cls-2" x="1282.63" y="229.04" width="12.54" height="40.83" transform="translate(201.12 984.45) rotate(-45)"/><rect class="cls-2" x="1190.55" y="243.18" width="40.83" height="12.54" transform="translate(178.3 929.34) rotate(-45)"/><rect class="cls-2" x="1268.49" y="321.11" width="40.83" height="12.54" transform="translate(146.02 1007.28) rotate(-45)"/><rect class="cls-2" x="1204.7" y="306.97" width="12.54" height="40.83" transform="translate(123.19 952.17) rotate(-45)"/><polygon class="cls-2" points="1298.9 268.32 1270.03 239.45 1249.93 219.35 1229.84 239.45 1200.96 268.32 1180.87 288.42 1200.96 308.51 1229.84 337.38 1249.93 357.48 1270.03 337.38 1298.9 308.51 1319 288.42 1298.9 268.32"/><rect class="cls-2" x="1648.76" y="30.19" width="12.54" height="40.83" transform="translate(448.97 1185.11) rotate(-45)"/><rect class="cls-2" x="1556.69" y="44.33" width="40.83" height="12.54" transform="translate(426.14 1130) rotate(-45)"/><rect class="cls-2" x="1634.62" y="122.26" width="40.83" height="12.54" transform="translate(393.86 1207.93) rotate(-45)"/><rect class="cls-2" x="1570.83" y="108.12" width="12.54" height="40.83" transform="translate(371.03 1152.82) rotate(-45)"/><polygon class="cls-2" points="1665.04 69.47 1636.16 40.6 1616.07 20.5 1595.97 40.6 1567.1 69.47 1547 89.57 1567.1 109.67 1595.97 138.53 1616.07 158.63 1636.16 138.53 1665.04 109.67 1685.13 89.57 1665.04 69.47"/><rect class="cls-2" x="1846.63" y="30.19" width="12.54" height="40.83" transform="translate(506.92 1325.02) rotate(-45)"/><rect class="cls-2" x="1754.55" y="44.33" width="40.83" height="12.54" transform="translate(484.1 1269.91) rotate(-45)"/><rect class="cls-2" x="1832.49" y="122.26" width="40.83" height="12.54" transform="translate(451.82 1347.84) rotate(-45)"/><rect class="cls-2" x="1768.7" y="108.12" width="12.54" height="40.83" transform="translate(428.99 1292.74) rotate(-45)"/><polygon class="cls-2" points="1862.9 69.47 1834.03 40.6 1813.93 20.5 1793.84 40.6 1764.96 69.47 1744.87 89.57 1764.96 109.67 1793.84 138.53 1813.93 158.63 1834.03 138.53 1862.9 109.67 1883 89.57 1862.9 69.47"/><rect class="cls-2" x="1648.76" y="228.05" width="12.54" height="40.83" transform="translate(309.06 1243.06) rotate(-45)"/><rect class="cls-2" x="1556.69" y="242.2" width="40.83" height="12.54" transform="translate(286.23 1187.95) rotate(-45)"/><rect class="cls-2" x="1634.62" y="320.13" width="40.83" height="12.54" transform="translate(253.95 1265.89) rotate(-45)"/><rect class="cls-2" x="1570.83" y="305.99" width="12.54" height="40.83" transform="translate(231.12 1210.78) rotate(-45)"/><polygon class="cls-2" points="1665.04 267.33 1636.16 238.47 1616.07 218.37 1595.97 238.47 1567.1 267.33 1547 287.43 1567.1 307.53 1595.97 336.4 1616.07 356.5 1636.16 336.4 1665.04 307.53 1685.13 287.43 1665.04 267.33"/><rect class="cls-2" x="1846.63" y="228.05" width="12.54" height="40.83" transform="translate(367.01 1382.97) rotate(-45)"/><rect class="cls-2" x="1754.55" y="242.2" width="40.83" height="12.54" transform="translate(344.18 1327.87) rotate(-45)"/><rect class="cls-2" x="1832.49" y="320.13" width="40.83" height="12.54" transform="translate(311.9 1405.8) rotate(-45)"/><rect class="cls-2" x="1768.7" y="305.99" width="12.54" height="40.83" transform="translate(289.08 1350.69) rotate(-45)"/><polygon class="cls-2" points="1862.9 267.33 1834.03 238.47 1813.93 218.37 1793.84 238.47 1764.96 267.33 1744.87 287.43 1764.96 307.53 1793.84 336.4 1813.93 356.5 1834.03 336.4 1862.9 307.53 1883 287.43 1862.9 267.33"/><rect class="cls-2" x="1411.5" y="664" width="31" height="416.5"/><rect class="cls-2" x="1411.5" y="0.5" width="31" height="415.5"/><rect class="cls-2" x="1418" y="416" width="18" height="248"/><rect class="cls-2" x="959.25" y="516.75" width="46.5" height="46.5" rx="23.25" ry="23.25" transform="translate(1965 1080) rotate(180)"/><rect class="cls-2" x="677.65" y="128.11" width="40.83" height="12.54"/><rect class="cls-2" x="677.65" y="238.32" width="40.83" height="12.54"/><polygon class="cls-2" points="746.9 209.9 746.9 169.07 746.9 140.65 718.48 140.65 677.65 140.65 649.23 140.65 649.23 169.07 649.23 209.9 649.23 238.32 677.65 238.32 718.48 238.32 746.9 238.32 746.9 209.9"/><rect class="cls-2" x="564.65" y="128.11" width="40.83" height="12.54"/><rect class="cls-2" x="564.65" y="238.32" width="40.83" height="12.54"/><polygon class="cls-2" points="633.9 209.9 633.9 169.07 633.9 140.65 605.48 140.65 564.65 140.65 536.23 140.65 536.23 169.07 536.23 209.9 536.23 238.32 564.65 238.32 605.48 238.32 633.9 238.32 633.9 209.9"/><rect class="cls-2" x="451.65" y="128.11" width="40.83" height="12.54"/><rect class="cls-2" x="451.65" y="238.32" width="40.83" height="12.54"/><polygon class="cls-2" points="520.9 209.9 520.9 169.07 520.9 140.65 492.48 140.65 451.65 140.65 423.23 140.65 423.23 169.07 423.23 209.9 423.23 238.32 451.65 238.32 492.48 238.32 520.9 238.32 520.9 209.9"/><rect class="cls-2" x="338.65" y="128.11" width="40.83" height="12.54"/><rect class="cls-2" x="338.65" y="238.32" width="40.83" height="12.54"/><polygon class="cls-2" points="407.9 209.9 407.9 169.07 407.9 140.65 379.48 140.65 338.65 140.65 310.23 140.65 310.23 169.07 310.23 209.9 310.23 238.32 338.65 238.32 379.48 238.32 407.9 238.32 407.9 209.9"/><rect class="cls-2" x="225.65" y="128.11" width="40.83" height="12.54"/><rect class="cls-2" x="225.65" y="238.32" width="40.83" height="12.54"/><polygon class="cls-2" points="294.9 209.9 294.9 169.07 294.9 140.65 266.48 140.65 225.65 140.65 197.23 140.65 197.23 169.07 197.23 209.9 197.23 238.32 225.65 238.32 266.48 238.32 294.9 238.32 294.9 209.9"/><path class="cls-2" d="M37.61,219H.5V861H37.61a78.89,78.89,0,0,0,78.89-78.89V297.89A78.89,78.89,0,0,0,37.61,219Z"/><rect class="cls-2" x="268.5" y="424.47" width="436" height="232"/><rect class="cls-2" x="290.93" y="445.47" width="413.57" height="190"/><rect class="cls-2" x="682.5" y="445.47" width="22" height="190"/><rect class="cls-2" x="660.5" y="445.47" width="22" height="190"/><rect class="cls-2" x="638.5" y="445.47" width="22" height="190"/><rect class="cls-2" x="616.5" y="445.47" width="22" height="190"/><rect class="cls-2" x="594.5" y="445.47" width="22" height="190"/><rect class="cls-2" x="572.5" y="445.47" width="22" height="190"/><rect class="cls-2" x="550.5" y="445.47" width="22" height="190"/><rect class="cls-2" x="528.5" y="445.47" width="22" height="190"/><rect class="cls-2" x="506.5" y="445.47" width="22" height="190"/><rect class="cls-2" x="484.5" y="445.47" width="22" height="190"/><rect class="cls-2" x="462.5" y="445.47" width="22" height="190"/><rect class="cls-2" x="440.5" y="445.47" width="22" height="190"/></g></g></svg>